Coordinates
version=1
nRows=29
nColumns=22
inDegrees=yes

Units are S.I. units (second, meters, Newtons, ...)
If the header above contains a line with 'inDegrees', this indicates whether rotational values are in degrees (yes) or radians (no).

endheader
time	pelvis_tilt	pelvis_list	pelvis_rotation	pelvis_tx	pelvis_ty	pelvis_tz	hip_flexion_r	hip_adduction_r	hip_rotation_r	knee_angle_r	ankle_angle_r	subtalar_angle_r	hip_flexion_l	hip_adduction_l	hip_rotation_l	knee_angle_l	ankle_angle_l	subtalar_angle_l	lumbar_extension	lumbar_bending	lumbar_rotation
      1.32000000	     -1.69982981	     -1.97630623	     -0.22806298	     -1.71940852	      1.06949438	     -0.30626164	      1.70495276	      4.52390717	     -0.82067620	    -14.69103024	     15.76071522	     -3.87063488	     10.63604308	     -2.76469519	      1.65746600	    -32.43545819	     14.40994181	      4.07398451	     -6.13927803	      0.60324577	     -4.57158520
      1.33000000	     -1.73226877	     -1.95970314	     -0.18630648	     -1.71818589	      1.06931777	     -0.30500312	      1.64641123	      4.58571858	     -0.83566754	    -14.65907578	     15.82207504	     -3.96521118	     11.63066234	     -2.71809561	      1.99302073	    -34.22372304	     13.76690910	      4.60555906	     -6.34649200	      0.60832751	     -4.46400517
      1.34000000	     -1.75558724	     -1.93309962	     -0.13213868	     -1.71687600	      1.06915186	     -0.30384674	      1.57777916	      4.63019025	     -0.86945956	    -14.63599159	     15.85669330	     -4.05322702	     12.64401390	     -2.64854893	      2.29318162	    -36.01644686	     13.08501588	      5.15012990	     -6.56474656	      0.60675555	     -4.35803633
      1.35000000	     -1.78642745	     -1.89673542	     -0.07558253	     -1.71547934	      1.06896313	     -0.30274537	      1.51360732	      4.65958022	     -0.92168111	    -14.61375019	     15.91015038	     -4.13247161	     13.68401273	     -2.56700972	      2.52898165	    -37.78050694	     12.39729140	      5.72174210	     -6.77678964	      0.59028585	     -4.24350237
      1.36000000	     -1.82225841	     -1.84821978	     -0.01220659	     -1.71397394	      1.06875950	     -0.30172393	      1.44837803	      4.66979674	     -0.99045469	    -14.59132881	     15.97607405	     -4.19361275	     14.73416644	     -2.47349173	      2.69065516	    -39.47249986	     11.75435338	      6.28756796	     -6.98164568	      0.55953172	     -4.12703755
      1.37000000	     -1.86362397	     -1.78250253	      0.05497266	     -1.71233808	      1.06855249	     -0.30077748	      1.37701599	      4.65572359	     -1.07045499	    -14.56083202	     16.04872176	     -4.22993785	     15.77967553	     -2.36789130	      2.76424115	    -41.04666986	     11.19178515	      6.81008561	     -7.17598680	      0.50762792	     -4.01403818
      1.38000000	     -1.90772585	     -1.69889727	      0.12461015	     -1.71055630	      1.06835631	     -0.29989947	      1.29049896	      4.61740643	     -1.15755858	    -14.51250694	     16.13445480	     -4.23907795	     16.80488129	     -2.25144097	      2.75202178	    -42.46267639	     10.72433650	      7.24544695	     -7.36158205	      0.43240571	     -3.88907499
      1.39000000	     -1.95311317	     -1.59884859	      0.19186054	     -1.70863342	      1.06817147	     -0.29907418	      1.19114728	      4.55704836	     -1.24759461	    -14.45581707	     16.24880207	     -4.22440546	     17.80144265	     -2.13042395	      2.64701190	    -43.69299370	     10.39548445	      7.56794085	     -7.54302934	      0.33387280	     -3.75655499
      1.40000000	     -2.00017222	     -1.48623319	      0.25728394	     -1.70655069	      1.06799379	     -0.29829835	      1.07966267	      4.47970206	     -1.34012857	    -14.39397719	     16.38639994	     -4.18913310	     18.76520725	     -2.01473931	      2.44081727	    -44.71975572	     10.21462859	      7.77278108	     -7.71671832	      0.21827840	     -3.63244034
      1.41000000	     -2.04564228	     -1.35671455	      0.32232003	     -1.70426582	      1.06784194	     -0.29755996	      0.93740935	      4.38187845	     -1.43285086	    -14.30106373	     16.52292277	     -4.13633631	     19.68185153	     -1.89826684	      2.14749799	    -45.52120312	     10.13147112	      7.85398208	     -7.87829254	      0.07662286	     -3.50000916
      1.42000000	     -2.08895764	     -1.21818295	      0.38847935	     -1.70179660	      1.06770794	     -0.29684745	      0.77029780	      4.27345947	     -1.52452573	    -14.18722705	     16.66087938	     -4.07119585	     20.55122593	     -1.79337938	      1.76752997	    -46.09379248	     10.13398340	      7.84083453	     -8.03404252	     -0.08139382	     -3.37215979
      1.43000000	     -2.11170945	     -1.07470253	      0.45445695	     -1.69914656	      1.06760220	     -0.29613347	      0.56675055	      4.15963349	     -1.62172171	    -14.06664813	     16.81005478	     -4.01034285	     21.35307559	     -1.70802432	      1.30776646	    -46.44183108	     10.19746770	      7.77421900	     -8.20727843	     -0.25329670	     -3.26589684
      1.44000000	     -2.17427224	     -0.91533650	      0.50701188	     -1.69630541	      1.06744295	     -0.29545318	      0.38486193	      4.02439706	     -1.70980404	    -13.92453043	     16.93347875	     -3.92587970	     22.14533615	     -1.61915130	      0.78603791	    -46.56564801	     10.28581389	      7.64310689	     -8.32105855	     -0.44586983	     -3.13267405
      1.45000000	     -2.23426708	     -0.76094882	      0.56204507	     -1.69329199	      1.06726301	     -0.29475756	      0.19278628	      3.89526652	     -1.80828627	    -13.78593962	     17.06839891	     -3.83770165	     22.89026413	     -1.55490061	      0.21341857	    -46.48180825	     10.37427695	      7.46939602	     -8.43157134	     -0.64555966	     -3.00169417
      1.46000000	     -2.30476979	     -0.60946091	      0.61217700	     -1.69008903	      1.06704527	     -0.29406360	     -0.00483030	      3.76837104	     -1.89764861	    -13.63283958	     17.21111810	     -3.72402095	     23.59619138	     -1.50342554	     -0.38997349	    -46.19598995	     10.40484441	      7.19207593	     -8.51880484	     -0.85042403	     -2.84703779
      1.47000000	     -2.35623125	     -0.44832323	      0.65984829	     -1.68669099	      1.06681420	     -0.29339436	     -0.22335119	      3.62712866	     -2.01526156	    -13.49692308	     17.33689889	     -3.64857516	     24.22803644	     -1.45053489	     -1.02436237	    -45.71869329	     10.46839658	      6.95207382	     -8.62043706	     -1.06748869	     -2.71179677
      1.48000000	     -2.40009827	     -0.28765786	      0.70544314	     -1.68310418	      1.06654699	     -0.29272793	     -0.45977050	      3.48643103	     -2.13479106	    -13.35968602	     17.45255578	     -3.58973003	     24.80469557	     -1.40156549	     -1.67093356	    -45.07259351	     10.48798925	      6.66772265	     -8.72384887	     -1.29184565	     -2.57568393
      1.49000000	     -2.43098668	     -0.12799220	      0.75018883	     -1.67931476	      1.06624677	     -0.29209393	     -0.71692312	      3.34458515	     -2.26888923	    -13.22835566	     17.54536050	     -3.56464817	     25.31553687	     -1.34997670	     -2.31871704	    -44.26466958	     10.48689283	      6.35217919	     -8.83252925	     -1.51383591	     -2.45532081
      1.50000000	     -2.45142521	      0.02987491	      0.80023486	     -1.67532056	      1.06590735	     -0.29152234	     -0.99504893	      3.20224095	     -2.42023749	    -13.09602185	     17.60837150	     -3.58448738	     25.76392722	     -1.28635694	     -2.94737219	    -43.31028142	     10.47433774	      6.02569401	     -8.94416515	     -1.72743518	     -2.33581659
      1.51000000	     -2.48333573	      0.19732269	      0.84896151	     -1.67113547	      1.06548448	     -0.29096689	     -1.26408196	      3.04943178	     -2.57789303	    -12.97767764	     17.67546468	     -3.64038167	     26.17598974	     -1.19947824	     -3.54935976	    -42.22650140	     10.44332385	      5.76587187	     -9.03415777	     -1.95678649	     -2.22102076
      1.52000000	     -2.53312033	      0.36763263	      0.90754900	     -1.66675496	      1.06496780	     -0.29050246	     -1.51967263	      2.89056005	     -2.74726805	    -12.86999762	     17.74253484	     -3.71275782	     26.56127460	     -1.08165620	     -4.10214135	    -41.03030939	     10.38934923	      5.56790323	     -9.09317383	     -2.18084792	     -2.10147785
      1.53000000	     -2.53699037	      0.53192783	      0.96497922	     -1.66216716	      1.06444788	     -0.29007297	     -1.83307963	      2.74129888	     -2.90164765	    -12.76920762	     17.80310701	     -3.84398325	     26.85418532	     -0.96561576	     -4.65933160	    -39.74068164	     10.30452707	      5.27503031	     -9.20026194	     -2.39038827	     -2.02971957
      1.54000000	     -2.60092491	      0.70482259	      1.04057520	     -1.65741126	      1.06377015	     -0.28973443	     -2.07901861	      2.58147602	     -3.06846195	    -12.69754591	     17.90008606	     -3.94516626	     27.17313922	     -0.79966860	     -5.12702956	    -38.37152177	     10.16626902	      5.13895189	     -9.22815316	     -2.61058468	     -1.94343017
      1.55000000	     -2.61360312	      0.87961115	      1.11397878	     -1.65243052	      1.06310894	     -0.28945709	     -2.39862985	      2.42357191	     -3.20158426	    -12.61712372	     17.98542911	     -4.10609534	     27.38944076	     -0.61978292	     -5.58350437	    -36.92754941	     10.00017504	      4.92811823	     -9.30710658	     -2.82402268	     -1.88383460
      1.56000000	     -2.67371169	      1.06001414	      1.19994475	     -1.64729384	      1.06230820	     -0.28926718	     -2.66049032	      2.26000025	     -3.32571042	    -12.57440144	     18.12878808	     -4.22945145	     27.62310424	     -0.40495420	     -5.98015743	    -35.43425778	      9.77395099	      4.84209951	     -9.32506310	     -3.03956213	     -1.84161618
      1.57000000	     -2.76544634	      1.23833752	      1.29399479	     -1.64201037	      1.06140107	     -0.28916643	     -2.87808185	      2.09794864	     -3.44803221	    -12.57268339	     18.30855748	     -4.32981021	     27.85719758	     -0.16549350	     -6.31889147	    -33.90000953	      9.47615872	      4.83553381	     -9.30262543	     -3.24771756	     -1.80322696
      1.58000000	     -2.80759601	      1.43892012	      1.37618355	     -1.63650943	      1.06053433	     -0.28912437	     -3.16835797	      1.91703537	     -3.50603393	    -12.56041517	     18.48015008	     -4.48609310	     27.97838374	      0.11453439	     -6.62132570	    -32.29940992	      9.17563752	      4.82606323	     -9.32895592	     -3.47817755	     -1.77054782
      1.59000000	     -2.88692406	      1.64354755	      1.46044649	     -1.63086209	      1.05956155	     -0.28917036	     -3.40449079	      1.72814624	     -3.57158568	    -12.59474474	     18.67935842	     -4.62932923	     28.10318622	      0.42021445	     -6.87484778	    -30.67142473	      8.83710713	      4.91239388	     -9.30757802	     -3.70823983	     -1.74362922
      1.60000000	     -2.96999138	      1.86347576	      1.53558247	     -1.62504494	      1.05854824	     -0.28928676	     -3.63148841	      1.52001310	     -3.62324928	    -12.65979832	     18.88792906	     -4.78503524	     28.18321316	      0.75891137	     -7.08112921	    -29.00627854	      8.49932110	      5.07350604	     -9.27619835	     -3.95288253	     -1.71570980
